<svg xmlns="http://www.w3.org/2000/svg" viewBox="0 0 161 173.16"><defs><style>.cls-1{fill:#fcfcfc;}.cls-2{fill:#353c41;}.cls-3{fill:#f8f8f8;}</style></defs><title>Recurso 1</title><g id="Capa_2" data-name="Capa 2"><g id="Capa_1-2" data-name="Capa 1"><polyline class="cls-1" points="40.08 0.5 148.44 0.5 148.44 151.02 40.08 151.02"/><polygon class="cls-2" points="148.94 151.52 40.08 151.52 40.08 150.52 147.94 150.52 147.94 1 40.08 1 40.08 0 148.94 0 148.94 151.52"/><polyline class="cls-1" points="32.69 5.92 141.04 5.92 141.04 155.95 32.69 155.95"/><polygon class="cls-2" points="141.54 156.45 32.69 156.45 32.69 155.45 140.54 155.45 140.54 6.42 32.69 6.42 32.69 5.42 141.54 5.42 141.54 156.45"/><polyline class="cls-1" points="25.29 53.62 25.29 12.45 133.64 12.45 133.64 161.5 25.29 161.5"/><polygon class="cls-2" points="134.14 162 25.29 162 25.29 161 133.14 161 133.14 12.95 25.79 12.95 25.79 53.62 24.79 53.62 24.79 11.95 134.14 11.95 134.14 162"/><polyline class="cls-3" points="0.5 62.77 77.59 62.77 93.28 49.46 160.5 49.46 160.5 172.66 0.5 172.66 0.5 76.03"/><polygon class="cls-2" points="161 173.16 0 173.16 0 76.03 1 76.03 1 172.16 160 172.16 160 49.96 93.47 49.96 77.78 63.27 0.5 63.27 0.5 62.27 77.41 62.27 93.1 48.96 161 48.96 161 173.16"/></g></g></svg>