<svg xmlns="http://www.w3.org/2000/svg" viewBox="0 0 150 163.48"><defs><style>.cls-1{fill:#fcfcfc;}.cls-2{fill:#353c41;}.cls-3{fill:#f8f8f8;}</style></defs><title>Recurso 1</title><g id="Capa_2" data-name="Capa 2"><g id="Capa_1-2" data-name="Capa 1"><polyline class="cls-1" points="24.46 104.43 24.46 0.49 132.91 0.49 132.91 142.08 24.46 142.08"/><polygon class="cls-2" points="133.4 142.56 24.46 142.56 24.46 141.59 132.42 141.59 132.42 0.98 24.95 0.98 24.95 104.43 23.97 104.43 23.97 0 133.4 0 133.4 142.56"/><polyline class="cls-1" points="0.49 17.61 55.04 17.61 55.04 50.74 0.49 50.74 0.49 28.91"/><polygon class="cls-2" points="55.53 51.23 0 51.23 0 28.91 0.98 28.91 0.98 50.25 54.55 50.25 54.55 18.1 0.49 18.1 0.49 17.12 55.53 17.12 55.53 51.23"/><polyline class="cls-3" points="81.8 162.99 11.63 162.99 11.63 118.47 95.84 118.47 95.84 162.99"/><polygon class="cls-2" points="81.8 163.48 11.14 163.48 11.14 117.98 96.33 117.98 96.33 162.99 95.36 162.99 95.36 118.96 12.12 118.96 12.12 162.5 81.8 162.5 81.8 163.48"/><line class="cls-1" x1="107.52" y1="12.97" x2="123.96" y2="12.97"/><rect class="cls-2" x="107.52" y="12.48" width="16.44" height="0.98"/><line class="cls-1" x1="7.52" y1="26.07" x2="23.96" y2="26.07"/><rect class="cls-2" x="7.52" y="25.58" width="16.44" height="0.98"/><line class="cls-1" x1="71.66" y1="129.03" x2="88.1" y2="129.03"/><rect class="cls-2" x="71.66" y="128.54" width="16.44" height="0.98"/><polygon class="cls-3" points="146.01 85.73 143.79 94.86 141.25 85.73 141.25 9.85 146.01 9.85 146.01 85.73"/><path class="cls-2" d="M143.82,96.8l-3.06-11.07V9.36h5.74V85.85Zm-2.08-11.14,2,7.26,1.77-7.25V10.34h-3.79Z"/><path class="cls-2" d="M149.51,47.38a.49.49,0,0,1-.49-.49V17.57h-9.35a.49.49,0,0,1,0-1h9.84a.49.49,0,0,1,.49.49V46.89A.49.49,0,0,1,149.51,47.38Z"/><line class="cls-3" x1="146.01" y1="85.73" x2="141.25" y2="85.73"/><path class="cls-2" d="M146,86.22h-4.76a.49.49,0,0,1,0-1H146a.49.49,0,1,1,0,1Z"/></g></g></svg>