<svg xmlns="http://www.w3.org/2000/svg" viewBox="0 0 131 161.07"><defs><style>.cls-1{fill:#fcfcfc;}.cls-2{fill:#353c41;}.cls-3{fill:#f8f8f8;}</style></defs><title>Recurso 2</title><g id="Capa_2" data-name="Capa 2"><g id="Capa_1-2" data-name="Capa 1"><polyline class="cls-1" points="0.5 112.83 0.5 0.7 65.5 22.76 65.5 160.57 0.5 138.51"/><path class="cls-2" d="M66,160.56a.51.51,0,0,1-.67.49L.34,139,.66,138,65,159.88V23.12L1,1.4V112.83H0V0L66,22.4Z"/><polyline class="cls-3" points="130.5 0.7 65.5 22.76 65.5 160.57 130.5 138.51 130.5 21.29"/><path class="cls-2" d="M65,160.52V22.4L130.34.22l.32,1L66,23.12V159.88l64-21.73V21.29h1V138.87L65.71,161A.54.54,0,0,1,65,160.52Z"/><polyline class="cls-3" points="116.31 95.81 100.41 101.21 100.41 134.91 116.31 129.52 116.31 109.63"/><polygon class="cls-2" points="99.91 135.61 99.91 100.85 116.14 95.34 116.47 96.29 100.91 101.57 100.91 134.22 115.81 129.16 115.81 109.63 116.81 109.63 116.81 129.88 99.91 135.61"/><polyline class="cls-1" points="19.63 34.52 49.12 43.5 49.12 96.35 19.63 87.38"/><polygon class="cls-2" points="49.62 97.03 19.48 87.86 19.77 86.9 48.62 95.68 48.62 43.87 19.48 34.99 19.77 34.04 49.62 43.13 49.62 97.03"/><line class="cls-1" x1="115.6" y1="28.91" x2="80.4" y2="40.86"/><path class="cls-2" d="M80.4,41.36a.5.5,0,0,1-.16-1l35.2-12a.5.5,0,0,1,.64.32.49.49,0,0,1-.32.63l-35.2,12Z"/><line class="cls-1" x1="115.6" y1="39.87" x2="80.4" y2="51.82"/><path class="cls-2" d="M80.4,52.32a.51.51,0,0,1-.48-.34.5.5,0,0,1,.32-.63l35.2-12a.5.5,0,1,1,.32,1L80.56,52.3A.47.47,0,0,1,80.4,52.32Z"/><line class="cls-1" x1="115.6" y1="50.84" x2="80.4" y2="62.79"/><path class="cls-2" d="M80.4,63.29a.51.51,0,0,1-.48-.34.5.5,0,0,1,.32-.63l35.2-12a.51.51,0,0,1,.64.31.49.49,0,0,1-.32.63L80.56,63.26Z"/><line class="cls-1" x1="115.6" y1="61.81" x2="80.4" y2="73.76"/><path class="cls-2" d="M80.4,74.26a.5.5,0,0,1-.16-1l35.2-12a.5.5,0,0,1,.64.32.49.49,0,0,1-.32.63l-35.2,12Z"/><line class="cls-1" x1="97.66" y1="79.47" x2="80.4" y2="85.33"/><path class="cls-2" d="M80.4,85.83a.51.51,0,0,1-.48-.34.5.5,0,0,1,.32-.63L97.49,79a.5.5,0,0,1,.33,1L80.56,85.81Z"/></g></g></svg>