<svg xmlns="http://www.w3.org/2000/svg" viewBox="0 0 201 148.58"><defs><style>.cls-1{fill:#353c41;}.cls-2{fill:#fcfcfc;}.cls-3{fill:#f8f8f8;}</style></defs><title>Recurso 3</title><g id="Capa_2" data-name="Capa 2"><g id="Capa_1-2" data-name="Capa 1"><path class="cls-1" d="M114.55,139.74a.5.5,0,0,1-.5-.5V119.91a.51.51,0,0,1,.5-.5.5.5,0,0,1,.5.5v19.33A.5.5,0,0,1,114.55,139.74Z"/><path class="cls-1" d="M101.34,139.74a.5.5,0,0,1-.5-.5V119.91a.5.5,0,0,1,1,0v19.33A.5.5,0,0,1,101.34,139.74Z"/><path class="cls-1" d="M145,148.58H70.91v-1h73.58V140H70.91v-1H145a.5.5,0,0,1,.5.5v8.61A.5.5,0,0,1,145,148.58Z"/><path class="cls-2" d="M15.39,4.5a4,4,0,0,1,4-4H196.5a4,4,0,0,1,4,4v118a4,4,0,0,1-4,4H70.91"/><path class="cls-1" d="M196.5,127H70.91v-1H196.5a3.5,3.5,0,0,0,3.5-3.5V4.5A3.5,3.5,0,0,0,196.5,1H19.39a3.5,3.5,0,0,0-3.5,3.5h-1A4.51,4.51,0,0,1,19.39,0H196.5A4.51,4.51,0,0,1,201,4.5v118A4.51,4.51,0,0,1,196.5,127Z"/><path class="cls-3" d="M15.54,53.73V4.58a4,4,0,0,1,4-4H196.35a4,4,0,0,1,4,4v100.3H15.54"/><path class="cls-1" d="M200.85,105.38H15.54v-1H199.85V4.58a3.5,3.5,0,0,0-3.5-3.5H19.54A3.5,3.5,0,0,0,16,4.58V53.73H15V4.58a4.51,4.51,0,0,1,4.5-4.5H196.35a4.51,4.51,0,0,1,4.5,4.5Z"/><path class="cls-1" d="M108.6,120.92a4.66,4.66,0,1,1,4.66-4.66A4.66,4.66,0,0,1,108.6,120.92Zm0-8.82a4.16,4.16,0,1,0,4.16,4.16A4.17,4.17,0,0,0,108.6,112.1Z"/><path class="cls-2" d="M.5,136.74V66A2.05,2.05,0,0,1,2.55,64H62.86a2.05,2.05,0,0,1,2,2.05v80a2.05,2.05,0,0,1-2,2.05H.5"/><path class="cls-1" d="M62.86,148.58H.5v-1H62.86A1.55,1.55,0,0,0,64.41,146V66a1.55,1.55,0,0,0-1.55-1.55H2.55A1.55,1.55,0,0,0,1,66v70.73H0V66a2.55,2.55,0,0,1,2.55-2.55H62.86A2.55,2.55,0,0,1,65.41,66v80A2.55,2.55,0,0,1,62.86,148.58Z"/><polyline class="cls-3" points="60.31 78.7 60.31 137.18 5.1 137.18 5.1 68.52 60.31 68.52"/><polygon class="cls-1" points="60.68 137.55 4.73 137.55 4.73 68.15 60.31 68.15 60.31 68.9 5.48 68.9 5.48 136.8 59.93 136.8 59.93 78.7 60.68 78.7 60.68 137.55"/><path class="cls-1" d="M32.55,145.22a2.93,2.93,0,1,1,2.92-2.93A2.93,2.93,0,0,1,32.55,145.22Zm0-5.35A2.43,2.43,0,1,0,35,142.29,2.43,2.43,0,0,0,32.55,139.87Z"/><path class="cls-2" d="M185.66,148.08H155.93a1.83,1.83,0,0,1-1.83-1.83V94a1.83,1.83,0,0,1,1.83-1.83h27.54A1.83,1.83,0,0,1,185.3,94v49.53"/><path class="cls-1" d="M185.66,148.58H155.93a2.33,2.33,0,0,1-2.33-2.33V94a2.33,2.33,0,0,1,2.33-2.33h27.54A2.34,2.34,0,0,1,185.8,94v49.53h-1V94a1.34,1.34,0,0,0-1.33-1.33H155.93A1.33,1.33,0,0,0,154.6,94v52.3a1.32,1.32,0,0,0,1.33,1.33h29.73Z"/><path class="cls-3" d="M156.61,98.55v47h26.17V94.64h-6.85a1.46,1.46,0,0,0-1.41,1.07h0a.59.59,0,0,1-.57.43h-8.5a.58.58,0,0,1-.57-.43h0a1.46,1.46,0,0,0-1.41-1.07h-6.86"/><path class="cls-1" d="M182.78,145.94H156.61a.38.38,0,0,1-.37-.37v-47H157v46.64h25.42V95h-6.49a1.09,1.09,0,0,0-1,.8,1,1,0,0,1-.93.71h-8.5a1,1,0,0,1-.93-.71,1.09,1.09,0,0,0-1.05-.8h-6.86v-.75h6.86a1.85,1.85,0,0,1,1.77,1.35.21.21,0,0,0,.21.16H174a.21.21,0,0,0,.2-.16,1.85,1.85,0,0,1,1.77-1.35h6.86a.38.38,0,0,1,.38.38v50.93A.38.38,0,0,1,182.78,145.94Z"/></g></g></svg>