<svg xmlns="http://www.w3.org/2000/svg" viewBox="0 0 181 154.59"><defs><style>.cls-1{fill:#fcfcfc;}.cls-2{fill:#353c41;}.cls-3{fill:#f8f8f8;}</style></defs><title>Recurso 3</title><g id="Capa_2" data-name="Capa 2"><g id="Capa_1-2" data-name="Capa 1"><path class="cls-1" d="M35.15,58.41c-.91.17-1.82.3-2.74.39A29.21,29.21,0,0,1,27,.63,29.2,29.2,0,0,1,58.3,35.71"/><path class="cls-2" d="M29.69,59.42a29.72,29.72,0,1,1,29.1-23.6.49.49,0,0,1-.59.38.5.5,0,0,1-.39-.59A28.67,28.67,0,0,0,7.66,11.41,28.65,28.65,0,0,0,32.37,58.3c.89-.08,1.79-.21,2.68-.38a.51.51,0,0,1,.59.4.5.5,0,0,1-.4.58c-.92.18-1.86.31-2.78.4S30.61,59.42,29.69,59.42Z"/><polyline class="cls-3" points="158.5 88.66 180.5 110.66 137.08 154.09 109.4 126.41 150.94 81.73"/><path class="cls-2" d="M137.08,154.59a.51.51,0,0,1-.36-.15L109,126.76a.5.5,0,0,1,0-.69l41.55-44.68a.5.5,0,0,1,.7,0,.5.5,0,0,1,0,.71L110.09,126.4l27,27,42.71-42.72L158.14,89a.5.5,0,0,1,.71-.71l22,22a.5.5,0,0,1,.14.35.52.52,0,0,1-.14.36l-43.43,43.42A.5.5,0,0,1,137.08,154.59Z"/><path class="cls-1" d="M86.45,98.74,24.22,37.15a9.46,9.46,0,0,1,0-13.39h0a9.47,9.47,0,0,1,13.38,0L72.48,58.64S61.79,46.43,67.82,40.15C75.33,32.34,87.05,45,87.05,45S73.83,34.45,81.94,26.33c7.22-7.21,18.63,6,18.63,6s-11-12.77-3.3-20.43c6.76-6.76,16.22,3.61,22.23,9.32s31.85,29.44,33.65,47.17-9,27.74-18.65,36.15-18.6,20-31.52,19.13-30-15.32-37.86-21S41.38,98.14,39,89.43s5.71-9.92,13.22-9.62,15.92.6,15.92.6"/><path class="cls-2" d="M104.39,124.23c-.48,0-1,0-1.45,0-11.3-.79-25.77-11.78-34.42-18.35-1.38-1-2.63-2-3.7-2.78-3.06-2.24-7.48-3.41-11.77-4.54-6.7-1.78-13-3.46-14.55-9-.8-2.9-.52-5.23.82-6.93,2-2.5,6.21-3.58,12.9-3.32,5.6.23,11.7.45,14.44.55L23.87,37.5A10,10,0,0,1,38,23.41L68.52,54C66,49.74,63.67,43.75,67.46,39.81a8.36,8.36,0,0,1,6.27-2.71,15.72,15.72,0,0,1,7.89,2.75,14.05,14.05,0,0,1-2.79-7.07A8.64,8.64,0,0,1,81.59,26a7.46,7.46,0,0,1,5.72-2.29c3.62.13,7.29,2.53,9.92,4.72a28.25,28.25,0,0,1-1.64-3.21c-2.42-5.64-2-10.35,1.32-13.64,6.55-6.55,15.47,2.09,21.38,7.8q.81.8,1.56,1.5l.83.79A216.51,216.51,0,0,1,139.2,41.08C148,51.84,152.9,61,153.65,68.35c1.88,18.47-10.09,28.93-18.82,36.58-1.81,1.58-3.64,3.32-5.41,5C122,117,114.37,124.23,104.39,124.23Zm-54.12-44c-5.24,0-8.58,1-10.16,3-1.14,1.43-1.36,3.47-.65,6,1.36,4.94,7.43,6.55,13.85,8.25,4.37,1.16,8.89,2.36,12.1,4.7,1.08.79,2.33,1.74,3.71,2.79,8.56,6.5,22.89,17.38,33.89,18.15,10.24.71,18.12-6.75,25.72-14,1.77-1.69,3.61-3.44,5.44-5,9.05-7.91,20.31-17.77,18.48-35.72C151.52,57.29,140.53,41.79,120,22.38l-.83-.79c-.5-.48-1-1-1.57-1.51-6-5.77-14.12-13.67-20-7.82C90.37,19.51,100.84,31.89,101,32a.49.49,0,0,1,0,.7.51.51,0,0,1-.71,0c-.06-.08-6.77-7.76-12.91-8a6.45,6.45,0,0,0-5,2,7.73,7.73,0,0,0-2.48,6c.22,3.75,3,7.39,5.17,9.62a28.16,28.16,0,0,1,2.43,2.27.5.5,0,0,1-.68.73,26.39,26.39,0,0,1-2.43-2.26c-2.51-2.1-6.63-5-10.6-5h-.06a7.37,7.37,0,0,0-5.47,2.4c-5.65,5.88,4.57,17.69,4.67,17.81a.5.5,0,0,1,0,.69.51.51,0,0,1-.7,0L37.25,24.12A9,9,0,0,0,24.57,36.8L86.8,98.38a.5.5,0,0,1,0,.71.48.48,0,0,1-.7,0L67.71,80.9c-1.74-.06-9-.33-15.53-.59C51.52,80.29,50.88,80.27,50.27,80.27Z"/></g></g></svg>